<svg width="32" height="32" viewBox="0 0 32 32" fill="none" xmlns="http://www.w3.org/2000/svg">
  <!-- Privacy Shield Icon with FHE Encryption Theme -->
  <defs>
    <linearGradient id="shieldGradient" x1="0%" y1="0%" x2="100%" y2="100%">
      <stop offset="0%" style="stop-color:#3B82F6;stop-opacity:1" />
      <stop offset="50%" style="stop-color:#1E40AF;stop-opacity:1" />
      <stop offset="100%" style="stop-color:#1E3A8A;stop-opacity:1" />
    </linearGradient>
    <linearGradient id="lockGradient" x1="0%" y1="0%" x2="100%" y2="100%">
      <stop offset="0%" style="stop-color:#10B981;stop-opacity:1" />
      <stop offset="100%" style="stop-color:#059669;stop-opacity:1" />
    </linearGradient>
  </defs>
  
  <!-- Shield Background -->
  <path d="M16 2L6 8V16C6 22.5 16 30 16 30S26 22.5 26 16V8L16 2Z" fill="url(#shieldGradient)" stroke="#1E40AF" stroke-width="1"/>
  
  <!-- Encryption Lock -->
  <rect x="12" y="14" width="8" height="6" rx="2" fill="url(#lockGradient)" stroke="#059669" stroke-width="1"/>
  <path d="M14 14V12C14 10.5 15 9 16 9S18 10.5 18 12V14" stroke="#059669" stroke-width="1.5" fill="none"/>
  
  <!-- FHE Encryption Dots -->
  <circle cx="10" cy="10" r="1" fill="#3B82F6" opacity="0.8"/>
  <circle cx="22" cy="10" r="1" fill="#3B82F6" opacity="0.8"/>
  <circle cx="10" cy="22" r="1" fill="#3B82F6" opacity="0.8"/>
  <circle cx="22" cy="22" r="1" fill="#3B82F6" opacity="0.8"/>
  
  <!-- Central Encryption Symbol -->
  <circle cx="16" cy="17" r="2" fill="white" opacity="0.9"/>
  <path d="M15 17H17M16 16V18" stroke="#1E40AF" stroke-width="0.5"/>
</svg>
